<?xml version="1.0" encoding="utf-8"?>
<!-- Svg Vector Icons : http://www.onlinewebfonts.com/icon -->
<!DOCTYPE svg PUBLIC "-//W3C//DTD SVG 1.1//EN" "http://www.w3.org/Graphics/SVG/1.1/DTD/svg11.dtd">
<svg version="1.1" xmlns="http://www.w3.org/2000/svg" xmlns:xlink="http://www.w3.org/1999/xlink" x="0px" y="0px" viewBox="0 0 1000 1000" enable-background="new 0 0 1000 1000" xml:space="preserve">
<metadata> Svg Vector Icons : http://www.onlinewebfonts.com/icon </metadata>
<g><g><g><g><path d="M500,10C229.4,10,10,229.4,10,500c0,270.7,219.4,490,490,490c270.7,0,490-219.3,490-490C990,229.4,770.7,10,500,10z M761.3,728.7H238.7c-18,0-32.7-14.7-32.7-32.7c0-18,14.6-32.7,32.7-32.7h522.7c18,0,32.7,14.7,32.7,32.7C794,714,779.3,728.7,761.3,728.7z M761.3,532.7H238.7c-18,0-32.7-14.7-32.7-32.7c0-18,14.6-32.7,32.7-32.7h522.7c18,0,32.7,14.6,32.7,32.7C794,518,779.3,532.7,761.3,532.7z M761.3,336.7H238.7c-18,0-32.7-14.6-32.7-32.7c0-18,14.6-32.7,32.7-32.7h522.7c18,0,32.7,14.6,32.7,32.7C794,322,779.3,336.7,761.3,336.7z"/></g></g></g><g></g><g></g><g></g><g></g><g></g><g></g><g></g><g></g><g></g><g></g><g></g><g></g><g></g><g></g><g></g></g>
</svg>